REM DIRINDEX 1\2\5,1\2\6,1\2\7,1\2\8,1\3\9,1\3\10,1\3\11,1\4\12,1\4\13,1\4\14,1\4\15,1\4\16
REM DIRNAME folder01,folder02,folder03,folder04,folder05,folder06,folder07,folder08,folder09,folder10,folder11,folder12,folder13,folder14,folder15,folder16
TITLE ""
FILE "1200_sec03_1151_1160.mp3" MP3
  TRACK 01 AUDIO
    TITLE "0:"
    INDEX 01 00:00:00
  TRACK 02 AUDIO
    TITLE "12:cjc034_08297"
    INDEX 01 00:00:19
  TRACK 03 AUDIO
    TITLE "0:"
    INDEX 01 00:04:38
  TRACK 04 AUDIO
    TITLE "13:cjc034_08298"
    INDEX 01 00:04:70
  TRACK 05 AUDIO
    TITLE "0:"
    INDEX 01 00:08:48
  TRACK 06 AUDIO
    TITLE "14:cjc034_08299"
    INDEX 01 00:09:08
  TRACK 07 AUDIO
    TITLE "0:"
    INDEX 01 00:13:28
  TRACK 08 AUDIO
    TITLE "15:cjc034_08300"
    INDEX 01 00:13:61
  TRACK 09 AUDIO
    TITLE "0:"
    INDEX 01 00:18:03
  TRACK 10 AUDIO
    TITLE "12:cjc034_08301"
    INDEX 01 00:19:36
  TRACK 11 AUDIO
    TITLE "0:"
    INDEX 01 00:20:51
  TRACK 12 AUDIO
    TITLE "13:cjc034_08302"
    INDEX 01 00:21:08
  TRACK 13 AUDIO
    TITLE "0:"
    INDEX 01 00:22:32
  TRACK 14 AUDIO
    TITLE "14:cjc034_08303"
    INDEX 01 00:22:70
  TRACK 15 AUDIO
    TITLE "0:"
    INDEX 01 00:24:10
  TRACK 16 AUDIO
    TITLE "15:cjc034_08304"
    INDEX 01 00:24:41
  TRACK 17 AUDIO
    TITLE "0:"
    INDEX 01 00:27:67
  TRACK 18 AUDIO
    TITLE "12:cjc034_08305"
    INDEX 01 00:29:23
  TRACK 19 AUDIO
    TITLE "0:"
    INDEX 01 00:30:71
  TRACK 20 AUDIO
    TITLE "13:cjc034_08306"
    INDEX 01 00:31:27
  TRACK 21 AUDIO
    TITLE "0:"
    INDEX 01 00:37:40
  TRACK 22 AUDIO
    TITLE "14:cjc034_08307"
    INDEX 01 00:38:00
  TRACK 23 AUDIO
    TITLE "0:"
    INDEX 01 00:39:49
  TRACK 24 AUDIO
    TITLE "15:cjc034_08308"
    INDEX 01 00:40:07
  TRACK 25 AUDIO
    TITLE "0:"
    INDEX 01 00:44:34
  TRACK 26 AUDIO
    TITLE "12:cjc034_08309"
    INDEX 01 00:45:67
  TRACK 27 AUDIO
    TITLE "0:"
    INDEX 01 00:48:48
  TRACK 28 AUDIO
    TITLE "13:cjc034_08310"
    INDEX 01 00:49:04
  TRACK 29 AUDIO
    TITLE "0:"
    INDEX 01 00:52:61
  TRACK 30 AUDIO
    TITLE "14:cjc034_08311"
    INDEX 01 00:53:19
  TRACK 31 AUDIO
    TITLE "0:"
    INDEX 01 00:56:00
  TRACK 32 AUDIO
    TITLE "15:cjc034_08312"
    INDEX 01 00:56:31
  TRACK 33 AUDIO
    TITLE "0:"
    INDEX 01 01:01:34
  TRACK 34 AUDIO
    TITLE "12:cjc034_08313"
    INDEX 01 01:02:65
  TRACK 35 AUDIO
    TITLE "0:"
    INDEX 01 01:04:13
  TRACK 36 AUDIO
    TITLE "13:cjc034_08314"
    INDEX 01 01:04:47
  TRACK 37 AUDIO
    TITLE "0:"
    INDEX 01 01:07:68
  TRACK 38 AUDIO
    TITLE "14:cjc034_08315"
    INDEX 01 01:08:25
  TRACK 39 AUDIO
    TITLE "0:"
    INDEX 01 01:09:46
  TRACK 40 AUDIO
    TITLE "15:cjc034_08316"
    INDEX 01 01:10:04
  TRACK 41 AUDIO
    TITLE "0:"
    INDEX 01 01:13:45
  TRACK 42 AUDIO
    TITLE "12:cjc034_08317"
    INDEX 01 01:15:01
  TRACK 43 AUDIO
    TITLE "0:"
    INDEX 01 01:16:36
  TRACK 44 AUDIO
    TITLE "13:cjc034_08318"
    INDEX 01 01:16:69
  TRACK 45 AUDIO
    TITLE "0:"
    INDEX 01 01:19:64
  TRACK 46 AUDIO
    TITLE "14:cjc034_08319"
    INDEX 01 01:20:22
  TRACK 47 AUDIO
    TITLE "0:"
    INDEX 01 01:21:57
  TRACK 48 AUDIO
    TITLE "15:cjc034_08320"
    INDEX 01 01:22:15
  TRACK 49 AUDIO
    TITLE "0:"
    INDEX 01 01:27:36
  TRACK 50 AUDIO
    TITLE "12:cjc034_08321"
    INDEX 01 01:28:72
  TRACK 51 AUDIO
    TITLE "0:"
    INDEX 01 01:30:20
  TRACK 52 AUDIO
    TITLE "13:cjc034_08322"
    INDEX 01 01:30:54
  TRACK 53 AUDIO
    TITLE "0:"
    INDEX 01 01:33:64
  TRACK 54 AUDIO
    TITLE "14:cjc034_08323"
    INDEX 01 01:34:22
  TRACK 55 AUDIO
    TITLE "0:"
    INDEX 01 01:35:45
  TRACK 56 AUDIO
    TITLE "15:cjc034_08324"
    INDEX 01 01:36:03
  TRACK 57 AUDIO
    TITLE "0:"
    INDEX 01 01:40:25
  TRACK 58 AUDIO
    TITLE "12:cjc034_08325"
    INDEX 01 01:41:56
  TRACK 59 AUDIO
    TITLE "0:"
    INDEX 01 01:43:09
  TRACK 60 AUDIO
    TITLE "13:cjc034_08326"
    INDEX 01 01:43:43
  TRACK 61 AUDIO
    TITLE "0:"
    INDEX 01 01:47:15
  TRACK 62 AUDIO
    TITLE "14:cjc034_08327"
    INDEX 01 01:47:48
  TRACK 63 AUDIO
    TITLE "0:"
    INDEX 01 01:49:02
  TRACK 64 AUDIO
    TITLE "15:cjc034_08328"
    INDEX 01 01:49:35
  TRACK 65 AUDIO
    TITLE "0:"
    INDEX 01 01:54:11
  TRACK 66 AUDIO
    TITLE "12:cjc034_08329"
    INDEX 01 01:55:42
  TRACK 67 AUDIO
    TITLE "0:"
    INDEX 01 01:56:73
  TRACK 68 AUDIO
    TITLE "13:cjc034_08330"
    INDEX 01 01:57:29
  TRACK 69 AUDIO
    TITLE "0:"
    INDEX 01 01:59:10
  TRACK 70 AUDIO
    TITLE "14:cjc034_08331"
    INDEX 01 01:59:44
  TRACK 71 AUDIO
    TITLE "0:"
    INDEX 01 02:00:74
  TRACK 72 AUDIO
    TITLE "15:cjc034_08332"
    INDEX 01 02:01:33
  TRACK 73 AUDIO
    TITLE "0:"
    INDEX 01 02:05:07
  TRACK 74 AUDIO
    TITLE "12:cjc034_08333"
    INDEX 01 02:06:40
  TRACK 75 AUDIO
    TITLE "0:"
    INDEX 01 02:10:43
  TRACK 76 AUDIO
    TITLE "13:cjc034_08334"
    INDEX 01 02:11:00
  TRACK 77 AUDIO
    TITLE "0:"
    INDEX 01 02:15:39
  TRACK 78 AUDIO
    TITLE "14:cjc034_08335"
    INDEX 01 02:15:74
  TRACK 79 AUDIO
    TITLE "0:"
    INDEX 01 02:20:01
  TRACK 80 AUDIO
    TITLE "15:cjc034_08336"
    INDEX 01 02:20:34
  TRACK 81 AUDIO
    TITLE "0:"
    INDEX 01 02:24:67
